<svg width="104" height="29" viewBox="0 0 104 29" fill="none" xmlns="http://www.w3.org/2000/svg">
<g clip-path="url(#clip0_655_191)">
<path d="M14.0001 0.468262C6.27992 0.468262 0 6.76171 0 14.4985C0 22.2353 6.27992 28.5318 14.0001 28.5318C21.7202 28.5318 28.0032 22.2353 28.0032 14.4985C28.0032 6.76171 21.7212 0.468262 14.0001 0.468262ZM15.1285 26.2192V16.4518L21.1809 19.9522C21.447 20.1059 21.7862 20.0153 21.9406 19.7496L22.5124 18.7623C22.6668 18.4956 22.5764 18.1536 22.3093 17.9999L16.2538 14.4995L22.289 11.0103C22.5663 10.8494 22.6617 10.4942 22.5013 10.2163L21.9406 9.24631C21.7872 8.97963 21.447 8.88904 21.1809 9.04274L15.1285 12.5432L15.1254 5.55249C15.1254 5.23898 14.8695 4.98248 14.5566 4.98248H14.0001H13.4323C13.1245 4.98248 12.8757 5.23288 12.8757 5.54129L12.8788 12.5472L6.82229 9.04477C6.55618 8.89108 6.21593 8.98167 6.06256 9.24835L5.49175 10.2347C5.33737 10.5013 5.42776 10.8444 5.69489 10.9981L11.7483 14.5005L5.71418 17.9887C5.43691 18.1496 5.34143 18.5048 5.50191 18.7827L6.06155 19.7517C6.21593 20.0184 6.55516 20.1089 6.82127 19.9552L12.8777 16.4528V26.2202C6.91674 25.6532 2.24972 20.623 2.24972 14.4995C2.24972 8.37604 7.20113 3.03938 13.4201 2.7381C13.6121 2.72995 13.805 2.72385 14.0001 2.72385C14.1951 2.72385 14.388 2.72995 14.58 2.7381C20.8 3.0404 25.7504 8.1918 25.7504 14.4995C25.7504 20.8072 21.0895 25.6512 15.1285 26.2202V26.2192Z" fill="#111111"/>
<path d="M40.3893 25.7589C38.1457 25.7589 36.2758 24.9314 34.8305 23.3008C33.3883 21.6742 32.657 19.5611 32.657 17.0195C32.657 14.4779 33.3933 12.3903 34.8447 10.7525C36.3002 9.11175 38.1548 8.27914 40.3588 8.27914C42.7568 8.27914 44.6704 9.25833 46.0517 11.1923V3.24072H49.6797V25.3986H46.0517V22.8997C44.6714 24.797 42.768 25.7589 40.3883 25.7589H40.3893ZM41.1094 11.7643C39.7129 11.7643 38.553 12.2559 37.6622 13.227C36.7684 14.2011 36.3154 15.4764 36.3154 17.0195C36.3154 18.5626 36.7684 19.839 37.6622 20.8121C38.553 21.7821 39.7129 22.2748 41.1094 22.2748C42.506 22.2748 43.7177 21.7821 44.648 20.8101C45.5804 19.837 46.0527 18.5626 46.0527 17.0195C46.0527 15.4764 45.5804 14.2265 44.648 13.2433C43.7167 12.262 42.5263 11.7643 41.1094 11.7643Z" fill="#111111"/>
<path d="M52.7654 25.399V8.63989H56.3923V25.399H52.7654ZM54.5631 6.84642C53.9141 6.84642 53.3616 6.63266 52.9218 6.21229C52.48 5.79089 52.2555 5.24532 52.2555 4.59287C52.2555 3.94042 52.48 3.43047 52.9238 3.01823C53.3646 2.60803 53.9161 2.40039 54.5641 2.40039C55.2121 2.40039 55.7941 2.60803 56.2339 3.01823C56.6767 3.43047 56.9022 3.96077 56.9022 4.59287C56.9022 5.22496 56.6777 5.78987 56.2349 6.21229C55.7951 6.63266 55.2324 6.84642 54.5641 6.84642H54.5631Z" fill="#111111"/>
<path d="M80.8436 25.3987V15.3972C80.8436 12.9523 79.8147 11.7645 77.6981 11.7645C76.4447 11.7645 75.4697 12.2133 74.7973 13.0979C74.1178 13.9926 73.7735 15.2109 73.7735 16.7184L73.804 25.3987H70.1465V15.3972C70.1465 12.9523 69.1176 11.7645 67.001 11.7645C65.7486 11.7645 64.7787 12.2123 64.1154 13.0968C63.4451 13.9926 63.1059 15.2109 63.1059 16.7184V25.3987H59.4789V8.63962H63.1059V10.9878C64.3104 9.19028 65.9914 8.2793 68.1091 8.2793C70.6168 8.2793 72.3353 9.3847 73.221 11.566C74.4408 9.3847 76.3086 8.2793 78.7767 8.2793C80.5419 8.2793 81.9487 8.85337 82.9572 9.98625C83.9617 11.1151 84.4716 12.6938 84.4716 14.6766V25.3987H80.8446H80.8436Z" fill="#111111"/>
<path d="M95.5872 25.76C93.0673 25.76 90.9669 24.9345 89.3448 23.3049C87.7197 21.6794 86.895 19.5744 86.895 17.0491C86.895 14.5238 87.7137 12.4097 89.3286 10.7638C90.9415 9.11692 93.0277 8.28125 95.5262 8.28125C98.166 8.28125 100.299 9.20954 101.865 11.0386C103.427 12.8657 104.137 15.1936 103.977 17.956L103.97 18.07H93.7214C93.2206 18.07 92.8123 17.6619 92.8123 17.159V15.9773C92.8123 15.4755 93.2196 15.0673 93.7214 15.0673H100.077C99.8134 14.0057 99.2893 13.1385 98.5184 12.4871C97.716 11.8081 96.7085 11.4641 95.5252 11.4641C94.3419 11.4641 93.2653 11.8132 92.4406 12.5023C91.2096 13.5304 90.6134 14.9096 90.5626 16.8415L90.5596 16.9239C90.4529 19.3037 91.3691 20.632 92.1572 21.3282C93.0713 22.1354 94.2353 22.5456 95.6156 22.5456C96.5866 22.5456 97.4651 22.3379 98.2259 21.9288C98.9775 21.5206 99.5442 20.9211 99.9099 20.1495L99.9424 20.0803H103.696L103.64 20.2411C103.013 22.0438 101.968 23.4281 100.536 24.3564C99.1014 25.2877 97.4357 25.759 95.5851 25.759L95.5872 25.76Z" fill="#111111"/>
</g>
<defs>
<clipPath id="clip0_655_191">
<rect width="104" height="28.0635" fill="white" transform="translate(0 0.468262)"/>
</clipPath>
</defs>
</svg>
