<svg width="16" height="16" viewBox="0 0 16 16" fill="none" xmlns="http://www.w3.org/2000/svg">
<path d="M4.8 0H14.4C15.2824 0 16 0.714705 16 1.59355V7.96773C16 8.84657 15.2824 9.56128 14.4 9.56128V3.18709C14.4 2.30825 13.6824 1.59355 12.8 1.59355H3.2C3.2 0.714705 3.9176 0 4.8 0Z" fill="#C1C1CE"/>
<path d="M1.6 12.7484H3.2V16L7.2808 12.7484H11.2C12.0824 12.7484 12.8 12.0337 12.8 11.1548V4.78064C12.8 3.9018 12.0824 3.18709 11.2 3.18709H1.6C0.7176 3.18709 0 3.9018 0 4.78064V6H2.66667V6.66667H0V7.33333H2.66667V8H0V8.66667H2.66667V9.33333H0V11.1548C0 12.0337 0.7176 12.7484 1.6 12.7484Z" fill="#C1C1CE"/>
</svg>
