<svg width="12" height="16" viewBox="0 0 12 16" fill="none" xmlns="http://www.w3.org/2000/svg">
<path fill-rule="evenodd" clip-rule="evenodd" d="M1.6 16C1.16 16 0.783201 15.8432 0.469601 15.5296C0.156001 15.216 -0.000531975 14.8395 1.35824e-06 14.4L0 6.66667H2.66667V6H0V5.33333H2.66667V4.66667H0V4H2.66667V3.33333H0V1.6C0 1.16 0.1568 0.783201 0.4704 0.469601C0.784 0.156001 1.16053 -0.000531975 1.6 1.35824e-06L7.2 1.24579e-05L12 4.80001L12 14.4C12 14.84 11.8432 15.2168 11.5296 15.5304C11.216 15.844 10.8395 16.0005 10.4 16L1.6 16ZM4.76 12.8L9.28 8.28001L8.12 7.12001L4.74 10.5L3.06 8.82001L1.92 9.96001L4.76 12.8ZM6.4 5.60001H10.4L6.4 1.60001V5.60001Z" fill="#C1C1CE"/>
</svg>
