<svg width="16" height="16" viewBox="0 0 16 16" fill="none" xmlns="http://www.w3.org/2000/svg">
<path fill-rule="evenodd" clip-rule="evenodd" d="M1.33333 14.7691H0.552425C0.414622 14.7667 0.281161 14.8247 0.178888 14.9313C0.0766155 15.0379 0.0131188 15.1853 0.00117163 15.3438C-0.00367161 15.4279 0.00653495 15.5124 0.0311564 15.5918C0.0557779 15.6713 0.0942881 15.744 0.144297 15.8056C0.194305 15.8671 0.254744 15.9161 0.321857 15.9496C0.38897 15.983 0.461324 16.0002 0.534427 16H15.4656C15.5387 16.0002 15.611 15.983 15.6781 15.9496C15.7453 15.9161 15.8057 15.8671 15.8557 15.8056C15.9057 15.744 15.9442 15.6713 15.9688 15.5918C15.9935 15.5124 16.0037 15.4279 15.9988 15.3438C15.9869 15.1853 15.9234 15.0379 15.8211 14.9313C15.7188 14.8247 15.5854 14.7667 15.4476 14.7691H14.3991V5.3324C14.3994 5.12944 14.3562 4.92952 14.2734 4.75046C14.1906 4.5714 14.0708 4.41876 13.9245 4.30611L8.59191 0.207094C8.40548 0.0634758 8.18457 -0.00869359 7.96057 0.000835655C7.73657 0.0103649 7.52087 0.101108 7.3441 0.260178C7.21441 0.380022 7.11005 0.532347 7.03891 0.705622C6.96778 0.878897 6.93172 1.06858 6.93349 1.26031V14.7691H5.86698V5.22931C5.86698 5.1477 5.83889 5.06942 5.78889 5.01171C5.73888 4.954 5.67107 4.92158 5.60035 4.92158H2.39984C2.11699 4.92158 1.84572 5.05127 1.64571 5.28211C1.4457 5.51296 1.33333 5.82605 1.33333 6.15251V8H3.99961V8.66667H1.33333V9.33333H3.99961V10H1.33333V10.6667H3.99961V11.3333H1.33333V14.7691ZM11.5098 13.168C11.4809 13.0905 11.466 13.007 11.4662 12.9227V11.6917C11.466 11.6074 11.4809 11.5238 11.5098 11.4464C11.5388 11.3689 11.5813 11.2992 11.6346 11.2414C11.6879 11.1837 11.751 11.1393 11.8198 11.1109C11.8886 11.0824 11.9618 11.0707 12.0347 11.0763C12.172 11.0902 12.2996 11.1636 12.3919 11.2816C12.4843 11.3996 12.5345 11.5535 12.5327 11.7125V12.9011C12.5349 13.0603 12.4847 13.2145 12.3923 13.3327C12.2999 13.4509 12.1722 13.5243 12.0347 13.5381C11.9618 13.5437 11.8886 13.5319 11.8198 13.5035C11.751 13.4751 11.6879 13.4307 11.6346 13.3729C11.5813 13.3152 11.5388 13.2455 11.5098 13.168ZM11.5098 8.85973C11.4809 8.78227 11.466 8.69876 11.4662 8.61439V7.38345C11.466 7.29908 11.4809 7.21557 11.5098 7.13811C11.5388 7.06065 11.5813 6.99089 11.6346 6.93317C11.6879 6.87545 11.751 6.83101 11.8198 6.80259C11.8886 6.77417 11.9618 6.76239 12.0347 6.76798C12.172 6.78195 12.2996 6.85528 12.3919 6.97328C12.4843 7.09129 12.5345 7.24522 12.5327 7.40422V8.59284C12.5347 8.75197 12.4845 8.9061 12.3922 9.02427C12.2998 9.14243 12.1721 9.21588 12.0347 9.22985C11.9618 9.23544 11.8886 9.22366 11.8198 9.19525C11.751 9.16683 11.6879 9.12238 11.6346 9.06466C11.5813 9.00694 11.5388 8.93719 11.5098 8.85973ZM8.84357 13.168C8.81459 13.0905 8.79972 13.007 8.79988 12.9227V11.6925C8.79972 11.6081 8.81459 11.5246 8.84357 11.4472C8.87255 11.3697 8.91503 11.2999 8.96835 11.2422C9.02167 11.1845 9.0847 11.14 9.15353 11.1116C9.22237 11.0832 9.29552 11.0714 9.36847 11.077C9.50559 11.091 9.63308 11.1642 9.72542 11.282C9.81775 11.3999 9.8681 11.5536 9.86639 11.7125V12.9027C9.86826 13.0616 9.81796 13.2154 9.7256 13.3333C9.63323 13.4512 9.50565 13.5243 9.36847 13.5381C9.29552 13.5437 9.22237 13.5319 9.15353 13.5035C9.0847 13.4751 9.02167 13.4307 8.96835 13.3729C8.91503 13.3152 8.87255 13.2455 8.84357 13.168ZM8.84357 8.85973C8.81459 8.78227 8.79972 8.69876 8.79988 8.61439V7.38422C8.79972 7.29985 8.81459 7.21634 8.84357 7.13888C8.87255 7.06142 8.91503 6.99166 8.96835 6.93394C9.02167 6.87622 9.0847 6.83178 9.15353 6.80336C9.22237 6.77494 9.29552 6.76316 9.36847 6.76875C9.50559 6.78271 9.63308 6.85593 9.72542 6.97377C9.81775 7.09161 9.8681 7.24536 9.86639 7.40422V8.59438C9.8681 8.75325 9.81775 8.90699 9.72542 9.02483C9.63308 9.14267 9.50559 9.2159 9.36847 9.22985C9.29552 9.23544 9.22237 9.22366 9.15353 9.19525C9.0847 9.16683 9.02167 9.12238 8.96835 9.06466C8.91503 9.00694 8.87255 8.93719 8.84357 8.85973Z" fill="#FFC979"/>
</svg>
