<svg width="16" height="16" viewBox="0 0 16 16" fill="none" xmlns="http://www.w3.org/2000/svg">
<path d="M2.44531 11.4717C2.44531 11.3799 2.40625 11.291 2.34375 11.2256C2.27344 11.1621 2.1875 11.127 2.09375 11.1279H0.203125L2.44531 13.3701V11.4717Z" fill="#C1C1CE"/>
<path d="M8.30469 4.29492L8.21094 4.25879L8.10156 4.29102L8.03125 4.36816C7.98438 4.44141 7.95312 4.52344 7.9375 4.6084L7.92969 4.71387C7.92969 4.83691 7.96094 4.95703 8.03125 5.06055L8.10156 5.13965L8.20312 5.16895L8.30469 5.13965L8.375 5.06055C8.4375 4.95703 8.47656 4.83691 8.47656 4.71387C8.47656 4.5918 8.4375 4.47168 8.375 4.36816L8.30469 4.29492Z" fill="#C1C1CE"/>
<path d="M6.32812 3.28711C6.32812 3.41016 6.36719 3.53027 6.42969 3.63379L6.5 3.71289L6.60156 3.74219L6.70312 3.71289L6.78125 3.63379C6.84375 3.53027 6.875 3.41016 6.875 3.28711C6.875 3.16504 6.84375 3.04492 6.78125 2.94141C6.76562 2.9082 6.73438 2.88086 6.70312 2.8623C6.67969 2.84277 6.64062 2.83301 6.60156 2.83301L6.5 2.8623L6.42969 2.94141L6.38281 3.02734C6.35156 3.10938 6.32812 3.19727 6.32812 3.28711Z" fill="#C1C1CE"/>
<path fill-rule="evenodd" clip-rule="evenodd" d="M8.79688 5.69238C8.39844 6.01172 7.91406 6.18555 7.40625 6.18457C6.82812 6.18359 6.27344 5.9541 5.86719 5.54492C5.50781 5.1875 5.28906 4.7168 5.23438 4.21387C5.1875 3.71094 5.3125 3.20605 5.59375 2.78613C5.875 2.36621 6.29688 2.05664 6.78125 1.91016C7.26562 1.76367 7.78125 1.79004 8.25 1.98438C8.71875 2.17871 9.10156 2.52832 9.33594 2.97461C9.57812 3.4209 9.64844 3.93555 9.55469 4.43066C9.45312 4.92676 9.1875 5.37207 8.79688 5.69238ZM8.75781 4.22754L8.71094 4.13477L8.60938 4.01562L8.49219 3.93457C8.40625 3.88672 8.3125 3.86133 8.21094 3.86133L8.03906 3.88965L7.92969 3.93457C7.84375 3.98242 7.76562 4.05078 7.71875 4.13477C7.66406 4.2168 7.61719 4.30469 7.58594 4.39746C7.55469 4.49902 7.53906 4.60547 7.53906 4.71289C7.53906 4.91992 7.60156 5.12109 7.71875 5.29199C7.76562 5.375 7.84375 5.44336 7.92969 5.49121C8.01562 5.53906 8.10938 5.56348 8.21094 5.56348C8.3125 5.56348 8.40625 5.53906 8.49219 5.49121C8.57812 5.44336 8.65625 5.375 8.71094 5.29199C8.82031 5.12109 8.88281 4.91992 8.88281 4.71289C8.88281 4.54297 8.83594 4.37598 8.75781 4.22754ZM8.07812 2.56641C8.03125 2.57715 7.98438 2.60645 7.95312 2.64648L6.51562 5.15332C6.49219 5.19824 6.49219 5.25 6.50781 5.29785C6.52344 5.34473 6.55469 5.38477 6.59375 5.41016C6.64062 5.43457 6.6875 5.44238 6.74219 5.43164C6.78906 5.4209 6.82812 5.39258 6.85938 5.35156L8.30469 2.8457C8.32031 2.7998 8.32812 2.74805 8.3125 2.70117C8.29688 2.65332 8.26562 2.61328 8.21875 2.58789C8.17969 2.56348 8.125 2.55566 8.07812 2.56641ZM6.32031 2.50391C6.23438 2.55176 6.15625 2.62109 6.10938 2.70508C5.99219 2.87598 5.92969 3.07715 5.92969 3.2832C5.92969 3.48926 5.99219 3.69043 6.10938 3.8623C6.14062 3.92188 6.1875 3.97363 6.25 4.01562L6.32031 4.06152C6.40625 4.1084 6.5 4.13379 6.60156 4.13379C6.70312 4.13379 6.79688 4.1084 6.88281 4.06152C6.96875 4.01367 7.04688 3.94531 7.10156 3.8623C7.21094 3.69043 7.27344 3.48926 7.27344 3.2832C7.27344 3.07715 7.21094 2.87598 7.10156 2.70508C7.04688 2.62109 6.96875 2.55176 6.88281 2.50391C6.79688 2.45703 6.70312 2.43164 6.60156 2.43164C6.5 2.43164 6.40625 2.45703 6.32031 2.50391Z" fill="#C1C1CE"/>
<path fill-rule="evenodd" clip-rule="evenodd" d="M10.8125 0.546875V6.99512H10.0859C9.88281 6.99512 9.6875 7.07617 9.53906 7.2207C9.39062 7.36523 9.3125 7.56055 9.3125 7.76562V13.5693H2.84375V11.4717C2.84375 11.3486 2.8125 11.2285 2.75781 11.1221C2.72656 11.0566 2.67969 10.9961 2.625 10.9424C2.48438 10.8027 2.29688 10.7236 2.09375 10.7227H0V6.5H4V5.5H0V4.5H4V3.5H0V2.5H4V1.5H0V0.53418C0 0.391602 0.0625 0.255859 0.164062 0.15625C0.265625 0.0566406 0.40625 0 0.546875 0H10.2656C10.3438 0 10.4219 0.0185547 10.5 0.0537109L10.6484 0.161133C10.75 0.263672 10.8125 0.402344 10.8125 0.546875ZM7.15625 1.42871C6.55469 1.48633 6 1.75 5.57812 2.17188C5.46094 2.29102 5.35156 2.41992 5.25781 2.55859C5.16406 2.70117 5.08594 2.85254 5.01562 3.01074C4.89062 3.3252 4.82031 3.66113 4.82031 4.00098C4.82031 4.59863 5.03125 5.17773 5.40625 5.63965C5.78906 6.10156 6.3125 6.41797 6.90625 6.53418C7.49219 6.65039 8.09375 6.56055 8.625 6.27832C8.96875 6.09277 9.26562 5.83105 9.5 5.51562C9.61719 5.35352 9.71875 5.17676 9.79688 4.98828C10.0234 4.43652 10.0547 3.82129 9.875 3.25C9.76562 2.8877 9.57812 2.55664 9.32812 2.27832C9.1875 2.11719 9.02344 1.97363 8.84375 1.85156C8.34375 1.51953 7.75 1.37012 7.15625 1.42871ZM4.33594 12.1396H8.23438C8.28125 12.1396 8.33594 12.1182 8.375 12.0811C8.41406 12.0439 8.42969 11.9932 8.42969 11.9395C8.42969 11.8867 8.41406 11.8359 8.375 11.7979C8.33594 11.7607 8.28125 11.7393 8.23438 11.7393H4.33594C4.28125 11.7393 4.23438 11.7607 4.19531 11.7979C4.15625 11.8359 4.13281 11.8867 4.13281 11.9395C4.13281 11.9932 4.15625 12.0439 4.19531 12.0811C4.23438 12.1182 4.28125 12.1396 4.33594 12.1396ZM4.33594 10.8848H8.23438C8.28125 10.8848 8.33594 10.8643 8.375 10.8262C8.41406 10.7891 8.42969 10.7383 8.42969 10.6846C8.42969 10.6318 8.41406 10.5811 8.375 10.543C8.33594 10.5059 8.28125 10.4844 8.23438 10.4844H4.33594C4.28125 10.4844 4.23438 10.5059 4.19531 10.543L4.14062 10.6143L4.13281 10.6846C4.13281 10.7383 4.15625 10.7891 4.19531 10.8262C4.23438 10.8643 4.28125 10.8848 4.33594 10.8848ZM1.07812 9.62988H8.23438C8.28125 9.62988 8.33594 9.60938 8.375 9.57129C8.41406 9.53418 8.42969 9.4834 8.42969 9.42969C8.42969 9.37695 8.41406 9.32617 8.375 9.28906L8.30469 9.24414L8.23438 9.23047H1.07812C1.02344 9.23047 0.976562 9.25098 0.9375 9.28906C0.898438 9.32617 0.875 9.37695 0.875 9.42969C0.875 9.4834 0.898438 9.53418 0.9375 9.57129L1.00781 9.61621L1.07812 9.62988ZM1.07812 8.37695H8.23438C8.28125 8.37695 8.33594 8.35547 8.375 8.31836C8.41406 8.28125 8.42969 8.22949 8.42969 8.17676C8.42969 8.12402 8.41406 8.07324 8.375 8.03516C8.33594 7.99805 8.28125 7.97656 8.23438 7.97656H1.07812C1.02344 7.97656 0.976562 7.99805 0.9375 8.03516L0.882812 8.10742L0.875 8.17676C0.875 8.22949 0.898438 8.28125 0.9375 8.31836C0.976562 8.35547 1.02344 8.37695 1.07812 8.37695Z" fill="#C1C1CE"/>
<path fill-rule="evenodd" clip-rule="evenodd" d="M10.0859 7.38477H15.625C15.7266 7.39062 15.8203 7.42969 15.8906 7.5C15.9609 7.57031 16 7.66602 16 7.76562L15.9844 15.626C15.9844 15.7256 15.9453 15.8203 15.875 15.8906C15.8047 15.9609 15.7109 16 15.6094 16H10.0703C9.96875 16 9.875 15.9609 9.80469 15.8906C9.73438 15.8203 9.69531 15.7256 9.69531 15.626L9.71094 7.76074C9.71094 7.66113 9.75 7.56543 9.82031 7.49512C9.86719 7.44922 9.92188 7.41699 9.98438 7.39941L10.0859 7.38477ZM11.4062 15.1768C11.4375 15.1396 11.4609 15.0908 11.4609 15.0391V14.4346L11.4453 14.3604L11.4062 14.2969L11.3359 14.2549L11.2656 14.2412H10.6562L10.5781 14.2549L10.5156 14.2969L10.4766 14.3604L10.4609 14.4346V15.0391L10.4688 15.0996L10.5156 15.1768C10.5547 15.2129 10.6016 15.2324 10.6562 15.2324H11.2656C11.3203 15.2324 11.3672 15.2129 11.4062 15.1768ZM11.4453 13.4414L11.4609 13.3662V12.7549C11.4609 12.7031 11.4375 12.6543 11.4062 12.6182C11.3672 12.582 11.3203 12.5615 11.2656 12.5615H10.6562C10.6016 12.5615 10.5547 12.582 10.5156 12.6182C10.4844 12.6543 10.4609 12.7031 10.4609 12.7549V13.3662C10.4609 13.418 10.4844 13.4678 10.5156 13.5039C10.5547 13.541 10.6016 13.5615 10.6562 13.5615H11.2656L11.3359 13.5469L11.4062 13.5039L11.4453 13.4414ZM11.4062 11.832C11.4375 11.7959 11.4609 11.7461 11.4609 11.6953V11.083L11.4453 11.0088L11.4062 10.9463L11.3359 10.9043L11.2656 10.8896H10.6562L10.5781 10.9043L10.5156 10.9463L10.4766 11.0088L10.4609 11.083V11.6953C10.4609 11.7461 10.4844 11.7959 10.5156 11.832C10.5547 11.8682 10.6016 11.8887 10.6562 11.8887H11.2656C11.3203 11.8887 11.3672 11.8682 11.4062 11.832ZM13.2969 15.1816C13.3359 15.1445 13.3516 15.0957 13.3516 15.0439V14.4346C13.3516 14.3828 13.3359 14.334 13.2969 14.2979C13.2656 14.2617 13.2109 14.2412 13.1641 14.2412H12.5469C12.5 14.2412 12.4453 14.2617 12.4141 14.2979C12.375 14.334 12.3594 14.3828 12.3594 14.4346V15.0439L12.3672 15.1172L12.4141 15.1807C12.4531 15.2168 12.5 15.2373 12.5469 15.2383H13.1641C13.2109 15.2383 13.2656 15.2178 13.2969 15.1816ZM13.3438 13.4463L13.3516 13.3711V12.7598C13.3516 12.708 13.3359 12.6592 13.2969 12.623C13.2656 12.5869 13.2109 12.5664 13.1641 12.5664H12.5469C12.5 12.5664 12.4531 12.5869 12.4141 12.623C12.375 12.6592 12.3594 12.708 12.3594 12.7598V13.3711C12.3594 13.4229 12.375 13.4727 12.4141 13.5088C12.4453 13.5449 12.5 13.5664 12.5469 13.5664H13.1641L13.2344 13.5518L13.2969 13.5088L13.3438 13.4463ZM13.2969 11.8369C13.3359 11.8008 13.3516 11.751 13.3516 11.7002V11.0879C13.3516 11.0371 13.3359 10.9873 13.2969 10.9512C13.2656 10.915 13.2109 10.8945 13.1641 10.8945H12.5469C12.5 10.8945 12.4453 10.915 12.4141 10.9512L12.3672 11.0205L12.3594 11.0879V11.7002C12.3594 11.751 12.375 11.7998 12.4141 11.8359C12.4531 11.8721 12.5 11.8926 12.5469 11.8936H13.1641C13.2109 11.8936 13.2656 11.873 13.2969 11.8369ZM15.1953 15.1807C15.2266 15.1445 15.25 15.0957 15.25 15.0439V12.7598L15.2422 12.6865L15.1953 12.623C15.1562 12.5869 15.1094 12.5664 15.0625 12.5664H14.4453C14.3984 12.5664 14.3438 12.5869 14.3125 12.623C14.2734 12.6592 14.2578 12.708 14.2578 12.7598V15.0439C14.2578 15.0957 14.2734 15.1445 14.3125 15.1816C14.3438 15.2178 14.3984 15.2383 14.4453 15.2383H15.0547C15.1094 15.2373 15.1562 15.2168 15.1953 15.1807ZM15.1953 11.8359C15.2266 11.7998 15.25 11.751 15.25 11.7002V11.0879L15.2344 11.0146L15.1953 10.9512L15.1328 10.9092L15.0625 10.8945H14.4453C14.3984 10.8945 14.3438 10.915 14.3125 10.9512C14.2734 10.9873 14.2578 11.0371 14.2578 11.0879V11.7002C14.2578 11.751 14.2734 11.8008 14.3125 11.8369C14.3438 11.873 14.3984 11.8936 14.4453 11.8936H15.0547C15.1094 11.8926 15.1562 11.8721 15.1953 11.8359ZM15.1953 10.0889C15.2344 10.0537 15.25 10.0068 15.25 9.95703V8.32715C15.25 8.27832 15.2344 8.23047 15.1953 8.19531C15.1641 8.16113 15.1172 8.14062 15.0625 8.14062H10.6484C10.5938 8.14062 10.5469 8.16016 10.5156 8.19531L10.4766 8.25391L10.4531 8.32715V9.95703C10.4609 10.0068 10.4766 10.0547 10.5156 10.0898C10.5469 10.125 10.5938 10.1445 10.6484 10.1445H15.0625C15.1172 10.1436 15.1641 10.124 15.1953 10.0889Z" fill="#C1C1CE"/>
</svg>
