<svg width="16" height="16" viewBox="0 0 16 16" fill="none" xmlns="http://www.w3.org/2000/svg">
<path fill-rule="evenodd" clip-rule="evenodd" d="M12.3512 8.86673C10.5882 10.6296 7.5206 11.9004 7.5206 11.9004L4.10144 8.48136C4.10144 8.48136 5.37223 5.41487 7.1352 3.65205C11.5621 -0.775537 15.023 -0.0458027 15.8042 0.200195C16.0412 0.979112 16.7781 4.43914 12.3512 8.86673ZM10.6611 3.70123C9.76011 3.70123 9.02055 4.43914 9.02055 5.34108C9.02055 6.24297 9.76011 6.98093 10.6611 6.98093C11.5621 6.98093 12.3017 6.24297 12.3017 5.34108C12.3017 4.43914 11.5621 3.70123 10.6611 3.70123Z" fill="#C1C1CE"/>
<path d="M5.89565 3.16827L5.69514 3.39999C5.63329 3.48733 5.50486 3.66218 5.35451 3.86685C5.04909 4.28265 4.6532 4.8216 4.54153 5.00001L3.83321 6.23057L3.6301 6.59999L2.96866 7.99762L0.1276 6.59999L3.32802 3.39999C3.71343 3.01889 4.2681 2.84909 4.80454 2.9551L5.89565 3.16827Z" fill="#C1C1CE"/>
<path d="M8.00496 13.0319C8.25756 12.9253 10.9554 11.7774 12.8329 10.1048L13.0465 11.1953C13.1532 11.7364 12.9814 12.294 12.596 12.6793L9.27575 16L8.00496 13.0319Z" fill="#C1C1CE"/>
<path d="M5.01807 14.4586C5.46077 14.0158 5.73941 13.4009 5.73941 12.7203C5.74201 12.2334 5.59879 11.7572 5.32796 11.3521C5.05714 10.9469 4.67433 10.6312 4.22383 10.4449C3.77332 10.2587 3.27854 10.2103 2.802 10.3059C2.32284 10.4016 1.88536 10.6369 1.54162 10.9821C1.32725 11.1962 1.13227 11.5613 0.958582 12H2.66667V12.6667H0.725742C0.658084 12.8839 0.594768 13.1083 0.535961 13.3333H2.66667V14H0.373969C0.321541 14.2316 0.27432 14.4565 0.232502 14.6667H2.66667V15.3333H0.107914C0.0369378 15.7389 0 16 0 16C0 16 4.05196 15.4261 5.01807 14.4586Z" fill="#C1C1CE"/>
</svg>
