<svg width="16" height="16" viewBox="0 0 16 16" fill="none" xmlns="http://www.w3.org/2000/svg">
<path d="M6.22222 8.88889H0.888889C0.4 8.88889 0 8.48889 0 8V7H4V6H0V5H4V4H0V3H4V2H0V0.888889C0 0.4 0.4 0 0.888889 0H6.22222C6.71111 0 7.11111 0.4 7.11111 0.888889V8C7.11111 8.48889 6.71111 8.88889 6.22222 8.88889Z" fill="#C1C1CE"/>
<path d="M6.22222 16H0.888889C0.4 16 0 15.6 0 15.1111V11.5556C0 11.0667 0.4 10.6667 0.888889 10.6667H6.22222C6.71111 10.6667 7.11111 11.0667 7.11111 11.5556V15.1111C7.11111 15.6 6.71111 16 6.22222 16Z" fill="#C1C1CE"/>
<path d="M15.1111 16H9.77778C9.28889 16 8.88889 15.6 8.88889 15.1111V8C8.88889 7.51111 9.28889 7.11111 9.77778 7.11111H15.1111C15.6 7.11111 16 7.51111 16 8V15.1111C16 15.6 15.6 16 15.1111 16Z" fill="#C1C1CE"/>
<path d="M8.88889 4.44444V0.888889C8.88889 0.4 9.28889 0 9.77778 0H15.1111C15.6 0 16 0.4 16 0.888889V4.44444C16 4.93333 15.6 5.33333 15.1111 5.33333H9.77778C9.28889 5.33333 8.88889 4.93333 8.88889 4.44444Z" fill="#C1C1CE"/>
</svg>
