<svg width="16" height="16" viewBox="0 0 16 16" fill="none" xmlns="http://www.w3.org/2000/svg">
<path fill-rule="evenodd" clip-rule="evenodd" d="M13.3762 0H1.24805C0.544141 0 0 0.576563 0 1.24844V6.66667H2.66667V7.33333H0V8H2.66667V8.66667H0V9.33333H2.66667V10H0V14.7516C0 15.4563 0.576172 16 1.24805 16H13.3762C14.0801 16 14.6242 15.4234 14.6242 14.7516V1.24844C14.6242 1.04219 14.573 0.845313 14.4813 0.670313C14.2746 0.276563 13.8637 0 13.3762 0ZM10.6274 8.43559C10.9882 8.86121 11.2 9.37802 11.2 9.93538C11.2 11.1143 10.1895 12.1513 8.84189 12.4283V14.3998H7.15811V12.4283C5.81047 12.1513 4.8 11.1143 4.8 9.93538H6.48378C6.48378 10.6278 7.15811 11.1818 8 11.1818C8.84189 11.1818 9.51622 10.6278 9.51622 9.93538C9.51622 9.72932 9.4566 9.53679 9.35175 9.36789C9.27157 9.23953 9.16364 9.1213 9.03412 9.02334C8.86656 8.89499 8.66405 8.8004 8.43996 8.74298C8.30119 8.7092 8.15316 8.69231 8 8.69231C6.23193 8.69231 4.8 7.5168 4.8 6.06431C4.8 5.37522 5.14436 4.7368 5.69843 4.26727C6.09419 3.93286 6.59685 3.68627 7.15811 3.57142V1.59984H8.84189V3.57142C9.11841 3.62885 9.38156 3.71667 9.62416 3.83152C9.9716 3.99704 10.2779 4.2166 10.5257 4.4767C10.9471 4.9192 11.2 5.47318 11.2 6.06431H9.51622C9.51622 5.37184 8.84189 4.81787 8 4.81787C7.15811 4.81787 6.48378 5.37184 6.48378 6.06431C6.56807 6.7534 7.2424 7.30737 8 7.30737C9.0886 7.30737 10.0497 7.75326 10.6274 8.43559Z" fill="#C1C1CE"/>
<path d="M15.2641 1.92031H15.6801C15.7105 1.92031 15.7395 1.925 15.7664 1.93125C15.8363 1.95 15.8938 1.99219 15.9344 2.04688C15.9766 2.10313 16 2.17188 16 2.24063V5.05625C16 5.21563 15.8402 5.37656 15.6801 5.37656H15.2641V1.92031Z" fill="#C1C1CE"/>
<path d="M15.2641 10.5922H15.6801C15.8719 10.5922 16 10.7516 16 10.9438V13.7609C16 13.9516 15.8402 14.0797 15.6801 14.0797H15.2641V10.5922Z" fill="#C1C1CE"/>
<path d="M15.6801 6.27188H15.2641V9.72813H15.6801C15.7551 9.72813 15.8301 9.69375 15.8887 9.63906C15.9551 9.57813 16 9.49219 16 9.40781V6.59219C16 6.4 15.8719 6.27188 15.6801 6.27188Z" fill="#C1C1CE"/>
</svg>
