<svg width="16" height="12" viewBox="0 0 16 12" fill="none" xmlns="http://www.w3.org/2000/svg">
<path d="M0 1.38048V3.3933H16V1.38048C16 0.745289 15.4909 0.225586 14.8687 0.225586H1.13133C0.509095 0.225586 0 0.745289 0 1.38048Z" fill="#C1C1CE"/>
<path fill-rule="evenodd" clip-rule="evenodd" d="M0 10.6196C0 11.2548 0.509095 11.7745 1.13133 11.7745H14.8687C15.4909 11.7745 16 11.2548 16 10.6196V5.76908H0V6.89225H2.66667V7.55892H0V8.22559H2.66667V8.89225H0V9.55892H2.66667V10.2256H0V10.6196ZM5.1817 8.8873C4.90948 8.8873 4.68674 9.11467 4.68674 9.39256C4.68674 9.67046 4.90948 9.89783 5.1817 9.89783H10.8183C11.0905 9.89783 11.3133 9.67046 11.3133 9.39256C11.3133 9.11467 11.0905 8.8873 10.8183 8.8873H5.1817ZM13.6198 8.8873H13.1956C12.9233 8.8873 12.7006 9.11467 12.7006 9.39256C12.7006 9.67046 12.9233 9.89783 13.1956 9.89783H13.6198C13.892 9.89783 14.1148 9.67046 14.1148 9.39256C14.1148 9.11467 13.892 8.8873 13.6198 8.8873Z" fill="#C1C1CE"/>
</svg>
