<svg width="16" height="16" viewBox="0 0 16 16" fill="none" xmlns="http://www.w3.org/2000/svg">
<path d="M0.46875 0.46875C0.328125 0.612305 0.210938 0.78125 0.132812 0.963867C0.046875 1.16309 0 1.37891 0 1.59961V2.5H4V3.5H0V4.5H4V5.5H0V6.5H4V7.5H0V8.5332H4.79688C4.875 8.5332 4.95312 8.5498 5.02344 8.58008L5.17969 8.68945C5.27344 8.79004 5.33594 8.9248 5.33594 9.06641C5.33594 9.77344 5.61719 10.4521 6.11719 10.9521C6.61719 11.4521 7.28906 11.7334 8 11.7334C8.71094 11.7334 9.38281 11.4521 9.88281 10.9521C10.2031 10.6279 10.4375 10.2295 10.5625 9.7959C10.625 9.56055 10.6641 9.31543 10.6641 9.06641L10.6797 8.94336L10.7109 8.84473L10.8203 8.68945L10.8906 8.63477C10.9766 8.56934 11.0859 8.5332 11.2031 8.5332H16V1.59961L15.9766 1.31934L15.9062 1.06445C15.8203 0.842773 15.6953 0.638672 15.5312 0.46875C15.2344 0.168945 14.8281 0 14.3984 0H1.60156C1.45312 0 1.30469 0.0195312 1.16406 0.0576172L1.02344 0.106445L0.789062 0.223633C0.671875 0.291016 0.5625 0.373047 0.46875 0.46875Z" fill="#C1C1CE"/>
<path d="M0 14.4004V9.59961H4.30469C4.42969 10.4902 4.875 11.3037 5.55469 11.8936C6.23438 12.4824 7.10156 12.8066 8 12.8066C8.89844 12.8066 9.76562 12.4824 10.4453 11.8936C11.125 11.3037 11.5703 10.4902 11.6953 9.59961H16V14.4004C16 14.8242 15.8281 15.2314 15.5312 15.5312C15.3281 15.7402 15.0703 15.8857 14.7812 15.9541L14.5234 15.9951L14.3984 16H1.60156C1.39062 16 1.1875 15.96 1 15.8857C0.882812 15.8389 0.78125 15.7793 0.679688 15.7061L0.46875 15.5312C0.171875 15.2314 0 14.8242 0 14.4004Z" fill="#C1C1CE"/>
</svg>
